<mxfile host="app.diagrams.net" agent="Mozilla/5.0 (Windows NT 10.0; Win64; x64) AppleWebKit/537.36 (KHTML, like Gecko) Chrome/134.0.0.0 Safari/537.36 Edg/134.0.0.0" version="26.1.3">
  <diagram name="第 1 页" id="gUm_-61dX9LITKcOnTdN">
    <mxGraphModel dx="1427" dy="959" grid="1" gridSize="10" guides="1" tooltips="1" connect="1" arrows="1" fold="1" page="1" pageScale="1" pageWidth="827" pageHeight="1169" math="0" shadow="0">
      <root>
        <mxCell id="0" />
        <mxCell id="1" parent="0" />
        <mxCell id="-zORzYekLmcVjDEYVkM_-1" value="" style="shape=image;verticalLabelPosition=bottom;labelBackgroundColor=default;verticalAlign=top;aspect=fixed;imageAspect=0;image=data:image/png,iVBORw0KGgoAAAANSUhEUgAAAJsAAACbCAMAAABCvxm+AAAAAXNSR0IArs4c6QAAAARnQU1BAACxjwv8YQUAAAB1UExURQAAAP///////////////0ZyxEx2xlJ7yFd/yl2Ey2OIzWmNz2+R0XSV03qa1YCe14aj2Iyn2pGs3Jew3p204KO54qi9467B5bTF57nK6b/O68XT7MvX7tHc8Nbg8tzk9OLp9ujt+O7y+e7y+vP2+/n7/f///yv9KbwAAAAFdFJOUwBAUICfbvBmogAAAAlwSFlzAAAXEQAAFxEByibzPwAAA5xJREFUeF7t3Nt2qjAQgOF9mghEQaRoPWCQJvP+j7hXsHurU2Kb0UW5mO+uqeLPQbBh1R8/BNOv31P0s2/7g1P0+70NJieVNpabtmQxHTPSVtJj8RstPrRVNP+brAfaFnSff5O+RNqiSRuPtPFIG4+08Ugbj7TxSBuPtPFIG4+08Ugbj7TxSBuPtPFIG4+08Ugbj7TxSBsPs62sHzenC6V4bQd644mlposlWG0b3NCheMkeSzp2i9NW4Y4OcSjj7r8Soy3Ho4Il3UHRTkna2ZQu/Fp8m7anBObO0EM70tod1dy1M7r4K9FtyclmkHbd3TX+ihXuoMCDouMXsW3qiDnMjPv0BPC5Ddbwgq90+CK2bY8rfwpZ0nEOv5gdVnT4v8i2tT97bPCFjrMo4+b9fgiIayvxcD5QniPt3tLkZDUdfxfVtnBmBgtHzwaPMCrz7/tBUW2Nf3eu6NngMRry0MUrpi15xqVqwLGhI2cxbSnWUND1fpiG5kltW3rAPKx8YhsdfcxC2likjUfaeKSNR9p4pI1H2nikjWf8NuXnDr/0p//obZXtP22bL8yZjN22xeNyBlllT5/HjdxW/pt/0V+IG7ctsUcFue0aDdoFXvVi3LYNaqjw1HQ2gxoL+mti1DaNW0hcM4PUNqC60525P2/UtoNLYOf81FCFBSzvTK/1xmwrsAZ9njdRplNgXGCS6N2Ibeee7tzjJ4j0vUnTcdsqXF7tx71LYYehqb/eeG1JZ0B15t+Pqdv798XtY249q025V6jx3vGzwTnUVxO4a8w/OY8UWED7hDYwpl9WUN5vp/1lQHWtUl1wQhcAakxVaMoxqu3VqZk90tH/cj8dvHPZ1ZA/9uY2HOcPAu1vCwyJaiuxhAoPw3tVrXxaQTaCcRloawPz9FmLGtZ4vTZXotrAvCWwRmyGWDT+YtDeXgj6AW3xRB/uGbRL0MFbAnFtGvcK5ltD50UR8bhfAuT2w529AtsMVNm09An+Oa8ZJK0d3g+xbVBjG/44m6yx+/jbpXWr8EW1tOE7vJFtkFs81Dn9j0ev2iLuh245ZgbtpqQP94q1ubeusW2Q7Dq6a965bejtmAfv77cv4U0a3+aP76GbDPndZ80Wg88Z2swXnLaxSBuPtPFIG4+08Ugbj7TxSBuPtPFIG4+08Ugbj7TxSBuPtPFIG4+08Ugbj7TxSBvPUNuUv99yOmjblL9PdWKkjefSNkXntil/z7Zg+AtkfPxBU2QLnQAAAABJRU5ErkJggg==;" vertex="1" parent="1">
          <mxGeometry x="340" y="130" width="65" height="65" as="geometry" />
        </mxCell>
        <mxCell id="-zORzYekLmcVjDEYVkM_-2" value="&lt;font style=&quot;font-size: 14px;&quot; face=&quot;Times New Roman&quot;&gt;Hololens2&lt;/font&gt;" style="text;html=1;align=center;verticalAlign=middle;resizable=0;points=[];autosize=1;strokeColor=none;fillColor=none;" vertex="1" parent="1">
          <mxGeometry x="332.5" y="195" width="80" height="30" as="geometry" />
        </mxCell>
        <mxCell id="-zORzYekLmcVjDEYVkM_-3" value="" style="group" vertex="1" connectable="0" parent="1">
          <mxGeometry x="140" y="130" width="130" height="94.7449" as="geometry" />
        </mxCell>
        <mxCell id="-zORzYekLmcVjDEYVkM_-4" value="" style="group" vertex="1" connectable="0" parent="-zORzYekLmcVjDEYVkM_-3">
          <mxGeometry x="-46.42857142857143" width="176.42857142857144" height="80.24719999999999" as="geometry" />
        </mxCell>
        <mxCell id="-zORzYekLmcVjDEYVkM_-5" value="" style="shape=actor;whiteSpace=wrap;html=1;" vertex="1" parent="-zORzYekLmcVjDEYVkM_-4">
          <mxGeometry x="46.42857142857143" width="37.142857142857146" height="54.714" as="geometry" />
        </mxCell>
        <mxCell id="-zORzYekLmcVjDEYVkM_-6" value="&lt;font face=&quot;Times New Roman&quot; style=&quot;font-size: 14px;&quot;&gt;I&#39;m sleepy&lt;/font&gt;" style="whiteSpace=wrap;html=1;shape=mxgraph.basic.roundRectCallout;dx=30;dy=15;size=5;boundedLbl=1;" vertex="1" parent="-zORzYekLmcVjDEYVkM_-4">
          <mxGeometry x="92.85714285714286" width="74.28571428571429" height="54.714" as="geometry" />
        </mxCell>
        <mxCell id="-zORzYekLmcVjDEYVkM_-7" value="&lt;font face=&quot;Times New Roman&quot; style=&quot;font-size: 14px;&quot;&gt;用户语音&lt;/font&gt;" style="text;html=1;align=center;verticalAlign=middle;resizable=0;points=[];autosize=1;strokeColor=none;fillColor=none;" vertex="1" parent="-zORzYekLmcVjDEYVkM_-3">
          <mxGeometry x="18.357142857142858" y="64.7449" width="80" height="30" as="geometry" />
        </mxCell>
        <mxCell id="-zORzYekLmcVjDEYVkM_-8" value="" style="endArrow=classic;html=1;rounded=0;" edge="1" parent="1">
          <mxGeometry width="50" height="50" relative="1" as="geometry">
            <mxPoint x="270" y="160" as="sourcePoint" />
            <mxPoint x="320" y="160" as="targetPoint" />
          </mxGeometry>
        </mxCell>
        <mxCell id="-zORzYekLmcVjDEYVkM_-9" value="&lt;div style=&quot;&quot;&gt;&lt;div style=&quot;text-align: left;&quot;&gt;&lt;font style=&quot;color: rgb(0, 0, 0);&quot; face=&quot;Times New Roman&quot;&gt;&lt;span style=&quot;font-size: 14px;&quot;&gt;[&lt;/span&gt;&lt;/font&gt;&lt;/div&gt;&lt;div style=&quot;text-align: left;&quot;&gt;&lt;font style=&quot;color: rgb(0, 0, 0);&quot;&gt;&lt;font face=&quot;Times New Roman&quot;&gt;&lt;span style=&quot;background-color: transparent; text-align: center;&quot;&gt;{&quot;name&quot;: &quot;Sofa&quot;,&quot;position&quot;:&amp;nbsp;&lt;/span&gt;&lt;/font&gt;&lt;span style=&quot;font-family: &amp;quot;Times New Roman&amp;quot;; text-align: center;&quot;&gt;……&lt;/span&gt;&lt;font face=&quot;Times New Roman&quot;&gt;&lt;span style=&quot;background-color: transparent; text-align: center;&quot;&gt;},&lt;br&gt;{&quot;name&quot;: &quot;TV&quot;,&quot;position&quot;:&amp;nbsp;&lt;/span&gt;&lt;/font&gt;&lt;span style=&quot;font-family: &amp;quot;Times New Roman&amp;quot;; text-align: center;&quot;&gt;……&lt;/span&gt;&lt;font face=&quot;Times New Roman&quot;&gt;&lt;span style=&quot;background-color: transparent; text-align: center;&quot;&gt;},&lt;/span&gt;&lt;/font&gt;&lt;/font&gt;&lt;/div&gt;&lt;div style=&quot;text-align: left;&quot;&gt;&lt;span style=&quot;font-family: &amp;quot;Times New Roman&amp;quot;; text-align: center; background-color: transparent;&quot;&gt;&lt;font style=&quot;color: rgb(0, 0, 0);&quot;&gt;……&lt;/font&gt;&lt;/span&gt;&lt;/div&gt;&lt;div style=&quot;text-align: left;&quot;&gt;&lt;font style=&quot;color: rgb(0, 0, 0);&quot; face=&quot;Times New Roman&quot;&gt;&lt;span style=&quot;font-size: 14px; background-color: transparent;&quot;&gt;]&lt;/span&gt;&lt;/font&gt;&lt;/div&gt;&lt;/div&gt;" style="rounded=1;arcSize=6;whiteSpace=wrap;html=1;fillColor=#f5f5f5;fontColor=#333333;strokeColor=#666666;" vertex="1" parent="1">
          <mxGeometry x="290" y="290" width="210" height="120" as="geometry" />
        </mxCell>
        <mxCell id="-zORzYekLmcVjDEYVkM_-10" value="&lt;font face=&quot;Times New Roman&quot; style=&quot;font-size: 14px;&quot;&gt;场景描述&lt;/font&gt;" style="text;html=1;align=center;verticalAlign=middle;resizable=0;points=[];autosize=1;strokeColor=none;fillColor=none;" vertex="1" parent="1">
          <mxGeometry x="354.9971428571429" y="410.0049" width="80" height="30" as="geometry" />
        </mxCell>
        <mxCell id="-zORzYekLmcVjDEYVkM_-11" value="" style="shape=cross;whiteSpace=wrap;html=1;" vertex="1" parent="1">
          <mxGeometry x="384" y="240" width="30" height="30" as="geometry" />
        </mxCell>
        <mxCell id="-zORzYekLmcVjDEYVkM_-12" value="" style="endArrow=classic;html=1;rounded=0;" edge="1" parent="1">
          <mxGeometry width="50" height="50" relative="1" as="geometry">
            <mxPoint x="412.5" y="160" as="sourcePoint" />
            <mxPoint x="480" y="160" as="targetPoint" />
          </mxGeometry>
        </mxCell>
        <mxCell id="-zORzYekLmcVjDEYVkM_-13" value="&lt;font style=&quot;font-size: 10px;&quot;&gt;Whisper API&lt;/font&gt;" style="edgeLabel;html=1;align=center;verticalAlign=middle;resizable=0;points=[];" vertex="1" connectable="0" parent="-zORzYekLmcVjDEYVkM_-12">
          <mxGeometry x="-0.3133" y="4" relative="1" as="geometry">
            <mxPoint x="4" y="-6" as="offset" />
          </mxGeometry>
        </mxCell>
        <mxCell id="-zORzYekLmcVjDEYVkM_-14" value="&lt;div style=&quot;&quot;&gt;&lt;div style=&quot;text-align: left;&quot;&gt;&lt;font face=&quot;Times New Roman&quot; color=&quot;#000000&quot;&gt;Dialogue history：I&#39;m sleepy&lt;/font&gt;&lt;/div&gt;&lt;/div&gt;" style="rounded=1;arcSize=6;whiteSpace=wrap;html=1;fillColor=#f5f5f5;fontColor=#333333;strokeColor=#666666;" vertex="1" parent="1">
          <mxGeometry x="490" y="137.5" width="170" height="50" as="geometry" />
        </mxCell>
        <mxCell id="-zORzYekLmcVjDEYVkM_-22" value="&lt;font face=&quot;Times New Roman&quot; style=&quot;font-size: 14px;&quot;&gt;对话文本&lt;/font&gt;" style="text;html=1;align=center;verticalAlign=middle;resizable=0;points=[];autosize=1;strokeColor=none;fillColor=none;" vertex="1" parent="1">
          <mxGeometry x="539.9971428571429" y="195.00490000000002" width="80" height="30" as="geometry" />
        </mxCell>
        <mxCell id="-zORzYekLmcVjDEYVkM_-23" value="" style="rounded=1;arcSize=5;whiteSpace=wrap;html=1;fillColor=none;strokeColor=#000000;fontColor=#333333;dashed=1;dashPattern=8 8;" vertex="1" parent="1">
          <mxGeometry x="120" y="67.37" width="560" height="382.63" as="geometry" />
        </mxCell>
        <mxCell id="-zORzYekLmcVjDEYVkM_-24" value="&lt;font style=&quot;font-size: 16px;&quot;&gt;输入信息&lt;/font&gt;" style="text;html=1;align=center;verticalAlign=middle;whiteSpace=wrap;rounded=0;" vertex="1" parent="1">
          <mxGeometry x="590" y="420" width="90" height="30" as="geometry" />
        </mxCell>
        <mxCell id="-zORzYekLmcVjDEYVkM_-25" value="" style="shape=singleArrow;whiteSpace=wrap;html=1;fillColor=light-dark(#eeeeee, #1a1a1a);strokeColor=#666666;gradientColor=none;arrowWidth=0.5809999999999832;arrowSize=0.42666666666666686;rotation=90;" vertex="1" parent="1">
          <mxGeometry x="374" y="469.99999999999994" width="50" height="20" as="geometry" />
        </mxCell>
        <mxCell id="-zORzYekLmcVjDEYVkM_-28" value="&lt;font face=&quot;Times New Roman&quot; color=&quot;#548235&quot;&gt;&lt;span style=&quot;font-size: 16px; text-wrap-mode: nowrap;&quot;&gt;&lt;b&gt;行为目标预测方法&lt;/b&gt;&lt;/span&gt;&lt;/font&gt;" style="rounded=1;arcSize=5;whiteSpace=wrap;html=1;fillColor=#d5e8d4;strokeColor=light-dark(#517f31, #446e2c);" vertex="1" parent="1">
          <mxGeometry x="308.5" y="510" width="183" height="35" as="geometry" />
        </mxCell>
        <mxCell id="-zORzYekLmcVjDEYVkM_-30" value="" style="shape=singleArrow;whiteSpace=wrap;html=1;fillColor=light-dark(#517f31, #1f2f1e);strokeColor=light-dark(#507f31, #446e2c);arrowWidth=0.5809999999999832;arrowSize=0.42666666666666686;rotation=90;" vertex="1" parent="1">
          <mxGeometry x="374" y="565" width="50" height="20" as="geometry" />
        </mxCell>
        <mxCell id="-zORzYekLmcVjDEYVkM_-35" value="" style="group" vertex="1" connectable="0" parent="1">
          <mxGeometry x="355" y="610" width="90" height="35" as="geometry" />
        </mxCell>
        <mxCell id="-zORzYekLmcVjDEYVkM_-33" value="&lt;span style=&quot;color: rgba(0, 0, 0, 0); font-family: monospace; font-size: 0px; text-align: start; text-wrap-mode: nowrap;&quot;&gt;%3CmxGraphModel%3E%3Croot%3E%3CmxCell%20id%3D%220%22%2F%3E%3CmxCell%20id%3D%221%22%20parent%3D%220%22%2F%3E%3CmxCell%20id%3D%222%22%20value%3D%22%26lt%3Bfont%20face%3D%26quot%3BTimes%20New%20Roman%26quot%3B%26gt%3B%26lt%3Bspan%26gt%3B%E9%A2%84%E6%B5%8B%E7%9B%AE%E6%A0%87%26lt%3B%2Fspan%26gt%3B%26lt%3B%2Ffont%26gt%3B%22%20style%3D%22text%3Bhtml%3D1%3Balign%3Dcenter%3BverticalAlign%3Dmiddle%3Bresizable%3D0%3Bpoints%3D%5B%5D%3Bautosize%3D1%3BstrokeColor%3Dnone%3BfillColor%3Dnone%3BfontColor%3Dlight-dark(%237f6105%2C%20%2369c195)%3BfontStyle%3D1%3BfontSize%3D12%3B%22%20vertex%3D%221%22%20parent%3D%221%22%3E%3CmxGeometry%20x%3D%22593%22%20y%3D%22466%22%20width%3D%2270%22%20height%3D%2230%22%20as%3D%22geometry%22%2F%3E%3C%2FmxCell%3E%3C%2Froot%3E%3C%2FmxGraphModel%3E&lt;/span&gt;" style="rounded=1;arcSize=5;whiteSpace=wrap;html=1;fillColor=#fff2cc;strokeColor=light-dark(#ccb66b, #6d5100);" vertex="1" parent="-zORzYekLmcVjDEYVkM_-35">
          <mxGeometry width="90" height="35" as="geometry" />
        </mxCell>
        <mxCell id="-zORzYekLmcVjDEYVkM_-34" value="&lt;font style=&quot;font-size: 16px;&quot; face=&quot;Times New Roman&quot;&gt;预测目标&lt;/font&gt;" style="text;html=1;align=center;verticalAlign=middle;resizable=0;points=[];autosize=1;strokeColor=none;fillColor=none;fontColor=light-dark(#7f6105, #69c195);fontStyle=1;fontSize=12;" vertex="1" parent="-zORzYekLmcVjDEYVkM_-35">
          <mxGeometry x="0.0005084745762697906" y="2.5" width="90" height="30" as="geometry" />
        </mxCell>
      </root>
    </mxGraphModel>
  </diagram>
</mxfile>
